<?xml version="1.0" encoding="utf-8"?>
<!-- Generator: Adobe Illustrator 16.0.0, SVG Export Plug-In . SVG Version: 6.00 Build 0)  -->
<!DOCTYPE svg PUBLIC "-//W3C//DTD SVG 1.1//EN" "http://www.w3.org/Graphics/SVG/1.1/DTD/svg11.dtd">
<svg version="1.1" id="Layer_1" xmlns="http://www.w3.org/2000/svg" xmlns:xlink="http://www.w3.org/1999/xlink" x="0px" y="0px"
	 width="267.013px" height="288px" viewBox="0 0 267.013 288" enable-background="new 0 0 267.013 288" xml:space="preserve">
<g>
	<path fill="#666666" d="M194.059,274.739c0.803,1.613,1.359,2.77,1.661,3.473c0.303,0.708,0.35,1.563,0.151,2.567
		c0,1.01,0.198,1.613,0.604,1.812c0.198,0.604,0.803,0.906,1.813,0.906h73.688v9.966H-1.636v-9.966h54.662
		c1.609,0,2.416-0.703,2.416-2.114c0.198-0.802,0.453-1.708,0.755-2.718c0.302-1.005,0.651-2.114,1.057-3.322
		c0-0.604,0.1-1.104,0.302-1.51c0.198-0.401,0.401-0.802,0.604-1.208c0.198-0.401,0.401-0.755,0.604-1.057
		c0.198-0.303,0.501-0.651,0.906-1.058c0.198-0.198,0.302-0.349,0.302-0.453c0-0.099,0.1-0.25,0.303-0.452v-0.906v-1.51
		c0-1.006,0.099-1.813,0.302-2.416c0.198-1.406,0.401-3.219,0.604-5.437c0.198-2.213,0.198-5.134,0-8.758
		c-0.405-5.837-0.557-11.222-0.453-16.157c0.1-4.931,0.251-8.503,0.453-10.721c0.198-2.011,1.006-4.577,2.416-7.701
		c1.406-3.119,2.214-5.785,2.416-8.003c0.198-2.01-0.052-4.529-0.755-7.55c-0.708-3.02-1.463-5.436-2.265-7.248
		c-1.01-1.812-2.114-4.124-3.322-6.946c-1.208-2.816-2.316-5.936-3.322-9.361c-1.01-4.025-1.161-7.801-0.453-11.325
		c0.703-3.521,1.255-5.889,1.661-7.097c0.401-1.208,0.755-2.266,1.058-3.172c0.302-0.905,0.25-1.557-0.151-1.963
		c-0.405-0.4-0.405-1.255,0-2.566c0.401-1.308,0.703-2.266,0.906-2.869c0.198-0.401,0.5-1.558,0.906-3.473
		c0.4-1.911,0.4-4.176,0-6.795c-0.406-2.817-0.255-6.04,0.452-9.664c0.703-3.624,1.058-7.145,1.058-10.57
		c0-3.624-0.604-7.144-1.813-10.57c-1.208-3.421-3.02-5.634-5.436-6.644c-1.208-0.604-2.869-1.458-4.983-2.567
		c-2.114-1.104-4.332-2.265-6.644-3.473c-2.317-1.208-4.53-2.416-6.644-3.624c-2.114-1.208-3.775-2.114-4.983-2.718
		s-2.567-1.661-4.077-3.171c-1.51-1.51-3.02-3.27-4.53-5.285c-1.51-2.01-2.973-3.973-4.379-5.889
		c-1.411-1.911-2.416-3.671-3.02-5.285c-1.411-3.218-2.973-5.436-4.681-6.644c-1.713-1.208-3.072-2.817-4.077-4.832
		c-1.01-1.609-2.218-3.067-3.624-4.379c-1.411-1.307-2.015-2.161-1.812-2.567c0.198-0.401,0.099-1.005-0.302-1.812
		c-0.406-0.802-0.604-1.609-0.604-2.416c0-0.604,0.198-1.156,0.604-1.661c0.401-0.5,0.802-0.552,1.208-0.151
		c0.604,0.604,1.255,0.859,1.963,0.755c0.703-0.099,1.557-0.25,2.567-0.453c1.005-0.198,1.911-0.099,2.718,0.302
		c0.802,0.406,1.406,2.015,1.812,4.832v2.718c0,2.015,0.302,3.02,0.906,3.02c0.604,0.203,1.104,0.807,1.51,1.812l0.604,1.208
		c2.01,2.218,4.025,4.228,6.04,6.04c1.609,1.614,3.171,3.124,4.681,4.53c1.51,1.411,2.765,2.317,3.775,2.718
		c1.609,0.807,3.218,2.166,4.832,4.077c1.609,1.916,2.916,3.171,3.926,3.775c0.401,0.406,1.406,1.057,3.02,1.963
		c1.609,0.906,3.218,1.864,4.832,2.869c2.01,1.208,4.228,2.52,6.644,3.926c0.401,0.203,1.005,0.302,1.812,0.302
		c0.401,0.203,0.953,0.302,1.661,0.302c0.703,0,1.458,0.104,2.265,0.302c2.817,0.604,5.182,1.359,7.098,2.265
		c1.911,0.906,3.671,2.067,5.285,3.473c1.005,0.807,1.91,0.906,2.718,0.302c0.802-0.198,1.208-0.906,1.208-2.114
		c0-2.213-0.151-4.176-0.453-5.889c-0.302-1.708-0.656-3.171-1.057-4.379c0-0.198-0.203-0.5-0.604-0.906l-0.604-0.604
		c-1.011-0.604-1.813-1.406-2.416-2.416c-1.614-2.817-1.713-4.426-0.303-4.832l0.604-0.604c0.198-0.198,0.302-0.5,0.302-0.906
		c0.401-1.609,0.604-2.817,0.604-3.624c0-0.802,0.099-1.609,0.302-2.416c0.401-1.609,1.156-3.52,2.265-5.738
		c1.104-2.213,3.671-3.322,7.701-3.322c4.025,0,6.993,0.807,8.909,2.416c1.911,1.614,2.968,3.02,3.171,4.228
		c0,1.614,0.302,2.671,0.906,3.171c0.604,0.505,0.905,1.661,0.905,3.473c0,0.604,0.198,1.01,0.604,1.208
		c0.198,0.406,0.604,0.604,1.208,0.604h2.416c1.208,0,1.812,0.505,1.812,1.51c0,0.604-0.104,1.01-0.302,1.208
		c-0.405,0.604-0.405,1.208,0,1.812c0,0.203,0.198,0.505,0.604,0.906c0.604,0.604,0.802,1.109,0.604,1.51
		c0,0.807-0.302,1.312-0.906,1.51c-0.405,0.406-0.604,0.807-0.604,1.208c0,0.604,0.099,1.109,0.302,1.51l0.302,0.302
		c0.604,1.01,0.501,1.812-0.302,2.416c-0.405,0.406-0.807,0.604-1.208,0.604c-0.203,0-0.354-0.047-0.453-0.151
		c-0.104-0.099-0.255-0.151-0.453-0.151c-0.807-0.401-1.51-0.302-2.113,0.302c-0.604,0.604-0.708,1.312-0.303,2.114
		c0.198,0.406,0.303,0.906,0.303,1.51c0,0.807-0.303,1.312-0.906,1.51c-0.406,0.406-0.604,0.906-0.604,1.51
		c0,0.807,0.303,1.312,0.906,1.51c0.604,0.406,1.255,0.656,1.963,0.755c0.703,0.104,1.359-0.047,1.963-0.453
		c2.817-1.812,5.838-2.765,9.061-2.869c3.218-0.099,5.332-0.047,6.342,0.151c0.198,0,0.35-0.047,0.453-0.151
		c0.099-0.099,0.25-0.151,0.453-0.151c2.213-1.208,4.176-2.063,5.889-2.567c1.708-0.5,3.067-0.953,4.077-1.359
		c0.401,0,0.802-0.302,1.208-0.906v-1.208c0-0.198-0.052-0.453-0.151-0.755c-0.104-0.302-0.15-0.651-0.15-1.057
		c0.198-3.02,1.208-6.238,3.02-9.664c-0.203-2.213-0.354-4.327-0.453-6.342c-0.104-2.01-0.255-3.218-0.453-3.624
		c0-2.01-1.01-3.723-3.02-5.134c-1.01-1.005-1.51-2.01-1.51-3.02c0-1.005-0.104-2.312-0.303-3.926
		c-0.202-1.812,0.35-3.02,1.661-3.624c1.308-0.604,2.364-0.703,3.171-0.302c0.803,0.406,1.511,0.656,2.114,0.755
		c0.604,0.104,1.308,0.255,2.114,0.453c1.609,0,2.515,0.406,2.718,1.208c0.198,0.203,0.302,0.807,0.302,1.812
		c0,0.203,0.1,0.406,0.303,0.604v0.302c-0.406,1.208,0,1.812,1.208,1.812c0.802,0.203,1.51-0.099,2.113-0.906
		c1.006-1.812,2.011-3.723,3.021-5.738c1.005-2.01,1.708-3.521,2.114-4.53c0.4-1.812,0.755-3.572,1.057-5.285
		c0.302-1.708,1.557-2.968,3.774-3.775c1.006-0.401,2.614-0.552,4.832-0.453c2.214,0.104,3.624,0.656,4.229,1.661
		c0.401,0.406,0.651,0.807,0.755,1.208c0.1,0.406,0.35,0.708,0.755,0.906c0.198,0.203,0.5,0.302,0.906,0.302
		c0.802,0.406,1.307,0.807,1.51,1.208c0.401,0.406,0.401,0.906,0,1.51l-1.51,3.02c-1.01,2.218-2.265,3.525-3.775,3.926
		c-1.51,0.406-3.071,1.312-4.681,2.718c-1.614,1.208-2.921,2.77-3.926,4.681c-1.01,1.916-1.916,3.879-2.718,5.889
		c-0.604,1.812-1.313,3.676-2.114,5.587c-0.807,1.916-1.208,3.879-1.208,5.889c0,0.406,0,0.906,0,1.51s0.099,1.208,0.302,1.812
		c0,0.406,0.198,0.807,0.604,1.208c0.197,0.406,0.703,0.604,1.51,0.604c0.604,0,1.358-0.047,2.265-0.151
		c0.906-0.099,1.661-0.151,2.265-0.151c2.011,0.203,3.974,0.505,5.89,0.906c1.911,0.406,3.874,0.302,5.889-0.302
		c1.005-0.401,1.911-0.755,2.718-1.057c0.803-0.302,1.709-0.552,2.719-0.755c1.208-0.198,2.265-0.151,3.171,0.151
		c0.905,0.302,1.859,0.453,2.869,0.453c1.208,0,2.161-0.151,2.868-0.453c0.703-0.302,1.558-0.453,2.567-0.453
		c0.604,0,1.104-0.198,1.51-0.604c0.401-0.802,0.604-1.307,0.604-1.51c0.198-1.609,0.198-3.218,0-4.832
		c-0.203-1.609-0.406-2.917-0.604-3.926c-0.202-0.198-0.302-0.349-0.302-0.453c0-0.099-0.104-0.25-0.302-0.453l-0.604-0.604
		c-0.202,0-0.505-0.198-0.905-0.604c0-0.198-0.053-0.349-0.151-0.453c-0.104-0.099-0.151-0.25-0.151-0.453
		c-0.405-0.401-0.707-1.156-0.905-2.265c-0.203-1.104-0.406-2.062-0.604-2.869v-0.906c0.198-0.198,0.302-0.35,0.302-0.453
		c0-0.099,0.1-0.25,0.303-0.453l0.604-0.604v-1.208c-0.807-5.233,0-9.258,2.416-12.08c1.609-1.812,3.369-2.916,5.285-3.322
		c1.911-0.401,3.572-0.5,4.982-0.302c3.822,0.807,6.441,2.218,7.853,4.228c1.609,2.015,2.416,4.28,2.416,6.795
		c0,2.52-0.104,4.483-0.302,5.889v1.208c0.198,0,0.302,0.104,0.302,0.302c0.401,0.406,0.604,1.01,0.604,1.812
		c-0.405,0.807-0.755,1.765-1.057,2.869c-0.302,1.109-0.557,2.067-0.755,2.869l-0.604,0.604c0,0.203-0.104,0.302-0.302,0.302
		l-0.604,0.604l-0.303,0.604c-0.405,0.807-0.604,1.411-0.604,1.812c-0.604,1.812-0.906,3.827-0.906,6.04v1.51
		c0.401,0.604,0.703,1.01,0.906,1.208c0.198,0.203,0.604,0.302,1.208,0.302c0.401,0,0.802,0.052,1.208,0.151
		c0.401,0.104,0.802,0.151,1.208,0.151c0.802,0.203,1.458,0.406,1.963,0.604c0.5,0.203,1.156,0.302,1.963,0.302
		c1.005,0,1.859-0.099,2.567-0.302c0.703-0.198,1.458-0.302,2.265-0.302c0.604-0.198,1.708-0.099,3.322,0.302
		c2.213,1.01,4.025,1.26,5.436,0.755c1.406-0.5,3.119-1.156,5.135-1.963c2.01-0.604,4.529-0.906,7.55-0.906
		c0.4,0,0.703-0.099,0.905-0.302c0.198-0.198,0.501-0.604,0.906-1.208c0.401-3.218,0.553-6.993,0.453-11.325
		c-0.104-4.327-0.656-8.503-1.661-12.533c-0.405-1.609-0.708-3.271-0.906-4.983c-0.202-1.708-0.807-3.27-1.812-4.681
		c-1.01-1.406-1.963-2.614-2.869-3.624c-0.906-1.005-1.765-2.313-2.566-3.926c-0.604-1.609-1.109-3.02-1.511-4.228
		c-0.405-1.208-0.302-2.614,0.303-4.228l0.302-0.604c0-0.604,0.401-1.104,1.208-1.51c0.198,0,0.4-0.047,0.604-0.151
		c0.198-0.099,0.5-0.047,0.906,0.151h0.906c1.005,0,2.062-0.151,3.171-0.453c1.104-0.302,2.161-0.349,3.171-0.151
		c1.812,0.406,3.02,0.958,3.624,1.661c0.604,0.708,1.104,1.864,1.51,3.473c0.401,2.218,0.553,4.228,0.453,6.04
		c-0.104,1.812-0.255,3.728-0.453,5.738c-0.203,1.812,0,3.577,0.604,5.285c0.604,1.713,1.208,3.374,1.812,4.983
		c1.208,3.426,2.463,6.998,3.775,10.721c1.307,3.728,2.161,7.503,2.566,11.325c0.198,1.812,0.35,3.926,0.453,6.342
		c0.1,2.416-0.655,4.332-2.265,5.738c-1.411,1.01-2.921,1.864-4.53,2.567c-1.613,0.708-3.124,1.562-4.53,2.567
		c-5.639,3.827-11.377,6.446-17.214,7.852c-1.01,0.203-1.863,0.354-2.566,0.453c-0.708,0.104-1.359,0.151-1.963,0.151
		c-0.203,0.203-0.406,0.302-0.604,0.302c-0.203,0-0.405,0.104-0.604,0.302c-0.406,0.406-0.604,0.807-0.604,1.208
		c-0.203,0.406-0.453,1.109-0.755,2.114c-0.302,1.01-0.656,2.317-1.057,3.926c-1.01,4.634-1.813,9.315-2.416,14.043
		c-0.604,4.733-1.411,9.414-2.416,14.043c-1.01,2.015-1.713,3.879-2.114,5.587c-0.406,1.713-0.708,3.676-0.906,5.889
		c-0.203,1.813-0.15,3.624,0.151,5.437c0.302,1.812,0.349,3.728,0.15,5.737c-0.202,2.016-0.202,3.676,0,4.983
		c0.198,1.312,0.803,2.869,1.813,4.681c0.604,1.208,0.906,2.416,0.906,3.624c0,0.808-0.303,1.51-0.906,2.114l-0.604,0.604v1.208
		c0.198,4.635,0.151,9.414-0.15,14.346c-0.302,4.936-1.563,9.814-3.775,14.646c-2.015,4.634-2.821,9.466-2.416,14.496
		c0.401,5.035,0.604,9.966,0.604,14.798c0,2.619-0.104,5.186-0.303,7.701c-0.202,2.52-0.604,4.983-1.208,7.398
		c-0.604,2.219-1.462,4.582-2.566,7.098c-1.109,2.52-1.563,4.884-1.359,7.097c0,2.416,0.25,4.832,0.755,7.248
		C192.597,270.209,193.252,272.526,194.059,274.739z M68.73,274.135c-0.203,1.01-0.255,2.114-0.151,3.322
		c0.099,1.208,0.047,2.317-0.151,3.322c0,0.604,0.198,1.312,0.604,2.114c0.802,0.405,1.406,0.604,1.812,0.604h109.626
		c0.604,0,1.104-0.198,1.511-0.604c0.604-0.604,0.905-1.208,0.905-1.813c-0.203-1.406-0.052-2.766,0.453-4.077
		c0.5-1.307,0.651-2.566,0.453-3.774c-0.406-1.813-0.708-3.624-0.906-5.437c-0.203-1.812,0-3.624,0.604-5.436
		c0.604-1.813,0.651-3.927,0.15-6.343c-0.505-2.416-0.858-4.529-1.057-6.342c-0.406-2.213-0.708-4.529-0.906-6.945
		c-0.202-2.416-0.202-4.832,0-7.248c0.401-4.832,0.854-9.514,1.359-14.043c0.5-4.53,0.453-9.107-0.151-13.741
		c-0.405-2.817-0.807-5.738-1.208-8.758c-0.405-3.021-0.905-6.946-1.51-11.778c-0.405-1.208-1.01-1.812-1.812-1.812
		c-1.208,0-1.813,0.505-1.813,1.51c-0.405,1.01-0.708,2.066-0.906,3.171c-0.202,1.109-0.505,2.265-0.905,3.473
		c-0.203,0.604-0.505,1.359-0.906,2.266c-0.406,0.905-0.807,1.863-1.208,2.869c-0.406,1.613-0.604,2.618-0.604,3.02
		c0,0.604,0.198,1.109,0.604,1.51c0.198,0.203,0.302,0.354,0.302,0.453c0,0.104,0.1,0.255,0.302,0.453
		c0,0.406,0.1,0.708,0.303,0.906c0,0.203,0.198,0.505,0.604,0.906l0.604,0.604c0.604,0,0.905,0.203,0.905,0.604
		c0.401,0.405,0.604,0.905,0.604,1.51c0.198,1.01,0.302,1.765,0.302,2.265c0,0.505,0,0.958,0,1.359c0,1.01-0.104,1.863-0.302,2.566
		c-0.203,0.708-0.505,2.067-0.906,4.077c-0.203,1.208-0.203,3.124,0,5.738c0.198,2.618,0.1,5.034-0.302,7.248
		c-0.406,2.015-0.807,3.321-1.208,3.926c-0.807,1.208-1.411,1.916-1.813,2.114c-1.01,0.405-2.113,0.405-3.321,0
		c-2.016-0.803-3.525-2.214-4.53-4.229c-0.406-1.005-0.557-2.161-0.453-3.473c0.099-1.308,0.25-2.666,0.453-4.077
		c0.401-1.005,0.651-2.011,0.755-3.021c0.1-1.005,0.35-2.01,0.755-3.02c0-0.803-0.104-1.406-0.302-1.812
		c-0.203-0.401-0.708-0.803-1.51-1.208c-1.208-0.401-2.369-0.755-3.474-1.058c-1.108-0.302-1.963-1.255-2.566-2.869
		c-0.808-2.213-1.058-4.426-0.755-6.644c0.302-2.213,0.25-4.426-0.151-6.644c-0.807-5.838-1.057-10.872-0.755-15.101
		c0.302-4.228,0.854-8.654,1.661-13.288c0.198-0.198,0.198-0.5,0-0.906c0-0.197-0.052-0.302-0.151-0.302
		c-0.104,0-0.151-0.099-0.151-0.302v-0.302c-0.604-0.803-0.905-1.609-0.905-2.416c-0.203-0.803-0.104-2.011,0.302-3.624
		c0.802-2.011,1.307-3.521,1.51-4.53c0.401-1.208,0.5-2.01,0.302-2.416c0-1.005-0.104-1.812-0.302-2.416v-2.114
		c0.198-0.4,0.302-0.703,0.302-0.905c0-0.198,0.198-0.501,0.604-0.906c0.604-1.208,1.104-2.364,1.51-3.473
		c0.401-1.104,0.703-2.365,0.906-3.776c0.401-2.817,0.401-5.483,0-8.003c-0.406-2.515-0.505-5.181-0.302-8.003
		c0.4-1.812,0.604-4.025,0.604-6.644c0-2.614-0.302-4.728-0.906-6.342c-0.604-1.609-0.807-3.067-0.604-4.379
		c0.198-1.307,0.401-2.766,0.604-4.379c0-1.812-0.15-2.968-0.452-3.473c-0.303-0.5-0.354-1.557-0.151-3.171
		c0-0.802-0.302-1.406-0.906-1.812c-0.604-0.604-1.208-0.906-1.812-0.906c-4.634,0.604-9.466,0.203-14.496-1.208
		c-0.604-0.198-1.359-0.401-2.266-0.604c-0.905-0.198-1.765-0.5-2.566-0.906c-0.406-0.198-0.906-0.302-1.51-0.302
		c-0.808,0.406-1.313,0.708-1.511,0.906c-0.807,1.208-1.863,2.166-3.171,2.869c-1.312,0.708-2.869,1.359-4.681,1.963
		c-3.827,1.208-6.645,2.369-8.456,3.473c-1.813,1.109-3.624,1.864-5.437,2.265c-0.405,0.203-0.905,0.354-1.51,0.453
		c-0.604,0.104-1.108,0.354-1.51,0.755c-0.203,0-0.505,0.203-0.906,0.604c-0.405,0.406-0.604,0.708-0.604,0.906
		c0,0.406-0.052,0.708-0.151,0.906c-0.104,0.203-0.15,0.406-0.15,0.604c0,0.604-0.303,1.765-0.906,3.473
		c-0.604,1.713-1.208,3.374-1.813,4.983c-0.202,0.406-0.302,0.708-0.302,0.906c0,0.203-0.104,0.505-0.302,0.906v1.208v0.906
		c0,0.406-0.104,0.708-0.302,0.906c-0.203,0.406-0.406,0.807-0.604,1.208c-0.203,0.406-0.405,1.01-0.604,1.812
		c-0.406,1.208-0.859,3.171-1.359,5.889c-0.505,2.718-1.26,6.696-2.265,11.929c-0.406,2.015-0.406,3.676,0,4.983
		c0.4,1.313,0.703,3.072,0.905,5.285c0,1.813,0.303,2.921,0.906,3.322c0.604,0.405,1.104,1.411,1.51,3.02
		c0.401,1.614,0.303,2.973-0.302,4.077c-0.604,1.109-0.807,2.166-0.604,3.171c0.198,1.01,0.15,2.067-0.151,3.171
		c-0.302,1.109-0.354,1.963-0.151,2.567c0,0.604,0,1.765,0,3.473c0,1.713-0.104,2.973-0.302,3.775c0,0.405-0.104,1.26-0.302,2.567
		c-0.203,1.312-0.406,2.868-0.604,4.681c-0.202,1.812-0.405,3.624-0.604,5.436c-0.203,1.813-0.406,3.322-0.604,4.53
		c-0.202,2.218-0.604,4.832-1.208,7.853c-0.604,3.02-1.108,5.237-1.51,6.644c-0.604,1.411-0.958,2.671-1.057,3.775
		c-0.104,1.108-0.052,2.066,0.15,2.868c0.198,0.808,0.151,2.369-0.15,4.682c-0.303,2.316-0.859,4.181-1.661,5.587
		c-1.01,1.208-2.015,2.718-3.021,4.529c-1.01,1.813-1.613,3.224-1.812,4.229c0,1.01,0.099,1.713,0.302,2.114
		c0,0.405,0.198,0.807,0.604,1.208c0.198,0.202,0.302,0.354,0.302,0.452c0,0.104,0.099,0.255,0.302,0.453
		c0,0.406,0.1,0.708,0.302,0.906c0,0.604,0.1,1.01,0.303,1.208c0.4,1.208,0.604,2.619,0.604,4.228c0.198,0,0.302,0.203,0.302,0.604
		l0.303,0.604c0.198,0.203,0.302,0.506,0.302,0.906c0.198,0.203,0.099,0.807-0.302,1.813c-0.203,0-0.303,0.104-0.303,0.302v0.604
		c0,0.808-0.354,2.266-1.057,4.38c-0.708,2.113-2.468,3.171-5.285,3.171c-0.807,0-1.613-0.553-2.416-1.661
		c-0.807-1.104-1.51-2.364-2.114-3.775c-0.604-1.406-1.01-2.817-1.208-4.228c-0.202-1.406-0.202-2.516,0-3.322
		c0.401-1.812,0.501-3.624,0.303-5.436c-0.203-1.813-0.303-3.927-0.303-6.343v-3.321c0-2.214,0.303-4.53,0.906-6.946
		c0.401-1.406,0.553-2.718,0.453-3.926c-0.104-1.208-0.151-2.313-0.151-3.322c0.198-2.416,0.501-4.53,0.906-6.342
		c0.401-1.813,0.755-3.521,1.058-5.134c0.302-1.609,0.552-3.219,0.755-4.832c0.198-1.609,0.099-3.521-0.303-5.738
		c-0.604-2.817-0.905-5.436-0.905-7.852s0.099-5.437,0.302-9.061c0-1.208-0.604-1.812-1.813-1.812s-1.812,0.505-1.812,1.51
		c-1.411,7.05-1.713,13.09-0.906,18.12c0.803,3.426,0.803,6.847,0,10.268c-0.807,3.426-1.51,5.941-2.114,7.55
		c-0.202,0.604-0.302,1.411-0.302,2.416c0.198,1.614,0.198,3.926,0,6.946c-0.203,3.02-0.557,6.295-1.057,9.814
		c-0.505,3.525-1.161,7.05-1.963,10.57c-0.808,3.525-1.813,6.696-3.021,9.513c-1.01,2.218-1.41,4.182-1.208,5.89
		c0.198,1.713,0.401,3.071,0.604,4.077v1.812c0,0.604-0.104,1.01-0.302,1.208c-0.406,0.807-0.604,1.411-0.604,1.813
		c0,1.208,0.1,2.015,0.302,2.416v0.604c0,0.203-0.104,0.406-0.302,0.604c-0.203,0.405-0.302,0.755-0.302,1.057
		S68.927,273.734,68.73,274.135z"/>
</g>
</svg>
